<svg width="29" height="29" viewBox="0 0 29 29" fill="none" xmlns="http://www.w3.org/2000/svg">
<path d="M22.2862 27.8775L12.7575 18.27C12.2325 18.48 11.7009 18.6375 11.1628 18.7425C10.6247 18.8475 10.0537 18.9 9.45 18.9C6.825 18.9 4.59375 17.9812 2.75625 16.1437C0.91875 14.3062 0 12.075 0 9.45C0 8.505 0.13125 7.60594 0.39375 6.75281C0.65625 5.89969 1.02375 5.0925 1.49625 4.33125L7.245 10.08L10.08 7.245L4.33125 1.49625C5.0925 1.02375 5.89969 0.65625 6.75281 0.39375C7.60594 0.13125 8.505 0 9.45 0C12.075 0 14.3062 0.91875 16.1437 2.75625C17.9812 4.59375 18.9 6.825 18.9 9.45C18.9 10.0537 18.8475 10.6247 18.7425 11.1628C18.6375 11.7009 18.48 12.2325 18.27 12.7575L27.8775 22.2862C28.1925 22.6012 28.35 22.9819 28.35 23.4281C28.35 23.8744 28.1925 24.255 27.8775 24.57L24.57 27.8775C24.255 28.1925 23.8744 28.35 23.4281 28.35C22.9819 28.35 22.6012 28.1925 22.2862 27.8775ZM23.4281 24.5306L24.4912 23.4675L14.4112 13.3875C14.8837 12.8625 15.225 12.2522 15.435 11.5566C15.645 10.8609 15.75 10.1587 15.75 9.45C15.75 7.875 15.2447 6.50344 14.2341 5.33531C13.2234 4.16719 11.97 3.465 10.4737 3.22875L13.3875 6.1425C13.7025 6.4575 13.86 6.825 13.86 7.245C13.86 7.665 13.7025 8.0325 13.3875 8.3475L8.3475 13.3875C8.0325 13.7025 7.665 13.86 7.245 13.86C6.825 13.86 6.4575 13.7025 6.1425 13.3875L3.22875 10.4737C3.465 11.97 4.16719 13.2234 5.33531 14.2341C6.50344 15.2447 7.875 15.75 9.45 15.75C10.1325 15.75 10.815 15.645 11.4975 15.435C12.18 15.225 12.7969 14.8969 13.3481 14.4506L23.4281 24.5306Z" fill="#C5A059"/>
</svg>
