<svg width="80" height="105" viewBox="0 0 80 105" fill="none" xmlns="http://www.w3.org/2000/svg">
<path d="M28.375 58.5L32.75 44.25L21.25 35H35.5L40 21L44.5 35H58.75L47.125 44.25L51.5 58.5L40 49.625L28.375 58.5ZM10 105V66.375C6.83333 62.875 4.375 58.875 2.625 54.375C0.875 49.875 0 45.0833 0 40C0 28.8333 3.875 19.375 11.625 11.625C19.375 3.875 28.8333 0 40 0C51.1667 0 60.625 3.875 68.375 11.625C76.125 19.375 80 28.8333 80 40C80 45.0833 79.125 49.875 77.375 54.375C75.625 58.875 73.1667 62.875 70 66.375V105L40 95L10 105ZM40 70C48.3333 70 55.4167 67.0833 61.25 61.25C67.0833 55.4167 70 48.3333 70 40C70 31.6667 67.0833 24.5833 61.25 18.75C55.4167 12.9167 48.3333 10 40 10C31.6667 10 24.5833 12.9167 18.75 18.75C12.9167 24.5833 10 31.6667 10 40C10 48.3333 12.9167 55.4167 18.75 61.25C24.5833 67.0833 31.6667 70 40 70ZM20 90.125L40 85L60 90.125V74.625C57.0833 76.2917 53.9375 77.6042 50.5625 78.5625C47.1875 79.5208 43.6667 80 40 80C36.3333 80 32.8125 79.5208 29.4375 78.5625C26.0625 77.6042 22.9167 76.2917 20 74.625V90.125Z" fill="#C5A059"/>
</svg>
